<mxfile host="app.diagrams.net" modified="2024-06-05T10:21:28.863Z" agent="Mozilla/5.0 (Windows NT 10.0; Win64; x64) AppleWebKit/537.36 (KHTML, like Gecko) Chrome/125.0.0.0 Safari/537.36" etag="Yr7OOoDQA7i21ZF4Q9Pq" version="24.4.13" type="device">
  <diagram name="Page-1" id="RHVISlTxD_8MFo3DnvG5">
    <mxGraphModel dx="2148" dy="1008" grid="0" gridSize="10" guides="0" tooltips="1" connect="0" arrows="0" fold="1" page="0" pageScale="1" pageWidth="850" pageHeight="1100" math="0" shadow="0">
      <root>
        <mxCell id="0" />
        <mxCell id="1" parent="0" />
        <mxCell id="f5FZlxdkZfZPKPNyx8Ql-1" value="User" style="rounded=0;whiteSpace=wrap;html=1;" vertex="1" parent="1">
          <mxGeometry x="80" y="155" width="120" height="40" as="geometry" />
        </mxCell>
        <mxCell id="f5FZlxdkZfZPKPNyx8Ql-5" value="ID&amp;nbsp;" style="ellipse;whiteSpace=wrap;html=1;" vertex="1" parent="1">
          <mxGeometry x="10" y="50" width="110" height="30" as="geometry" />
        </mxCell>
        <mxCell id="f5FZlxdkZfZPKPNyx8Ql-6" value="full_name" style="ellipse;whiteSpace=wrap;html=1;" vertex="1" parent="1">
          <mxGeometry x="130" y="30" width="110" height="30" as="geometry" />
        </mxCell>
        <mxCell id="f5FZlxdkZfZPKPNyx8Ql-7" value="username" style="ellipse;whiteSpace=wrap;html=1;" vertex="1" parent="1">
          <mxGeometry x="280" y="100" width="110" height="30" as="geometry" />
        </mxCell>
        <mxCell id="f5FZlxdkZfZPKPNyx8Ql-8" value="password" style="ellipse;whiteSpace=wrap;html=1;" vertex="1" parent="1">
          <mxGeometry x="280" y="155" width="110" height="30" as="geometry" />
        </mxCell>
        <mxCell id="f5FZlxdkZfZPKPNyx8Ql-9" value="phone_number" style="ellipse;whiteSpace=wrap;html=1;" vertex="1" parent="1">
          <mxGeometry x="80" y="260" width="110" height="30" as="geometry" />
        </mxCell>
        <mxCell id="f5FZlxdkZfZPKPNyx8Ql-10" value="address" style="ellipse;whiteSpace=wrap;html=1;" vertex="1" parent="1">
          <mxGeometry x="-40" y="240" width="110" height="30" as="geometry" />
        </mxCell>
        <mxCell id="f5FZlxdkZfZPKPNyx8Ql-11" value="gender" style="ellipse;whiteSpace=wrap;html=1;" vertex="1" parent="1">
          <mxGeometry x="240" y="210" width="110" height="30" as="geometry" />
        </mxCell>
        <mxCell id="f5FZlxdkZfZPKPNyx8Ql-12" value="types" style="ellipse;whiteSpace=wrap;html=1;" vertex="1" parent="1">
          <mxGeometry x="250" y="50" width="110" height="30" as="geometry" />
        </mxCell>
        <mxCell id="f5FZlxdkZfZPKPNyx8Ql-13" value="" style="endArrow=none;html=1;rounded=0;entryX=0.62;entryY=1.14;entryDx=0;entryDy=0;entryPerimeter=0;exitX=0.25;exitY=0;exitDx=0;exitDy=0;" edge="1" parent="1" source="f5FZlxdkZfZPKPNyx8Ql-1" target="f5FZlxdkZfZPKPNyx8Ql-5">
          <mxGeometry width="50" height="50" relative="1" as="geometry">
            <mxPoint x="110" y="160" as="sourcePoint" />
            <mxPoint x="160" y="110" as="targetPoint" />
          </mxGeometry>
        </mxCell>
        <mxCell id="f5FZlxdkZfZPKPNyx8Ql-14" value="" style="endArrow=none;html=1;rounded=0;entryX=0.364;entryY=1;entryDx=0;entryDy=0;entryPerimeter=0;exitX=0.585;exitY=-0.03;exitDx=0;exitDy=0;exitPerimeter=0;" edge="1" parent="1" source="f5FZlxdkZfZPKPNyx8Ql-1" target="f5FZlxdkZfZPKPNyx8Ql-6">
          <mxGeometry width="50" height="50" relative="1" as="geometry">
            <mxPoint x="162" y="160" as="sourcePoint" />
            <mxPoint x="130" y="84" as="targetPoint" />
          </mxGeometry>
        </mxCell>
        <mxCell id="f5FZlxdkZfZPKPNyx8Ql-16" value="" style="endArrow=none;html=1;rounded=0;entryX=0.053;entryY=0.9;entryDx=0;entryDy=0;entryPerimeter=0;exitX=0.898;exitY=0.01;exitDx=0;exitDy=0;exitPerimeter=0;" edge="1" parent="1" source="f5FZlxdkZfZPKPNyx8Ql-1" target="f5FZlxdkZfZPKPNyx8Ql-12">
          <mxGeometry width="50" height="50" relative="1" as="geometry">
            <mxPoint x="200" y="160" as="sourcePoint" />
            <mxPoint x="220" y="66" as="targetPoint" />
          </mxGeometry>
        </mxCell>
        <mxCell id="f5FZlxdkZfZPKPNyx8Ql-17" value="" style="endArrow=none;html=1;rounded=0;entryX=0;entryY=0.5;entryDx=0;entryDy=0;exitX=1;exitY=0.375;exitDx=0;exitDy=0;exitPerimeter=0;" edge="1" parent="1" source="f5FZlxdkZfZPKPNyx8Ql-1" target="f5FZlxdkZfZPKPNyx8Ql-7">
          <mxGeometry width="50" height="50" relative="1" as="geometry">
            <mxPoint x="210" y="170" as="sourcePoint" />
            <mxPoint x="268" y="100" as="targetPoint" />
          </mxGeometry>
        </mxCell>
        <mxCell id="f5FZlxdkZfZPKPNyx8Ql-18" value="" style="endArrow=none;html=1;rounded=0;entryX=0.332;entryY=0.99;entryDx=0;entryDy=0;entryPerimeter=0;exitX=0.442;exitY=-0.127;exitDx=0;exitDy=0;exitPerimeter=0;" edge="1" parent="1" source="f5FZlxdkZfZPKPNyx8Ql-10" target="f5FZlxdkZfZPKPNyx8Ql-1">
          <mxGeometry width="50" height="50" relative="1" as="geometry">
            <mxPoint x="70" y="260" as="sourcePoint" />
            <mxPoint x="110" y="200" as="targetPoint" />
          </mxGeometry>
        </mxCell>
        <mxCell id="f5FZlxdkZfZPKPNyx8Ql-19" value="" style="endArrow=none;html=1;rounded=0;entryX=0.645;entryY=0.99;entryDx=0;entryDy=0;exitX=0.311;exitY=0.113;exitDx=0;exitDy=0;exitPerimeter=0;entryPerimeter=0;" edge="1" parent="1" source="f5FZlxdkZfZPKPNyx8Ql-9" target="f5FZlxdkZfZPKPNyx8Ql-1">
          <mxGeometry width="50" height="50" relative="1" as="geometry">
            <mxPoint x="155" y="265" as="sourcePoint" />
            <mxPoint x="235" y="210" as="targetPoint" />
          </mxGeometry>
        </mxCell>
        <mxCell id="f5FZlxdkZfZPKPNyx8Ql-20" value="" style="endArrow=none;html=1;rounded=0;entryX=0.645;entryY=0.99;entryDx=0;entryDy=0;exitX=0;exitY=0.5;exitDx=0;exitDy=0;entryPerimeter=0;" edge="1" parent="1" source="f5FZlxdkZfZPKPNyx8Ql-11">
          <mxGeometry width="50" height="50" relative="1" as="geometry">
            <mxPoint x="217" y="263" as="sourcePoint" />
            <mxPoint x="200" y="195" as="targetPoint" />
          </mxGeometry>
        </mxCell>
        <mxCell id="f5FZlxdkZfZPKPNyx8Ql-23" value="" style="endArrow=none;html=1;rounded=0;exitX=1;exitY=0.375;exitDx=0;exitDy=0;exitPerimeter=0;entryX=0;entryY=0.5;entryDx=0;entryDy=0;" edge="1" parent="1" target="f5FZlxdkZfZPKPNyx8Ql-8">
          <mxGeometry width="50" height="50" relative="1" as="geometry">
            <mxPoint x="200" y="175" as="sourcePoint" />
            <mxPoint x="295" y="190" as="targetPoint" />
          </mxGeometry>
        </mxCell>
        <mxCell id="f5FZlxdkZfZPKPNyx8Ql-24" value="email" style="ellipse;whiteSpace=wrap;html=1;" vertex="1" parent="1">
          <mxGeometry x="220" y="260" width="110" height="30" as="geometry" />
        </mxCell>
        <mxCell id="f5FZlxdkZfZPKPNyx8Ql-25" value="" style="endArrow=none;html=1;rounded=0;entryX=0.845;entryY=0.996;entryDx=0;entryDy=0;exitX=0;exitY=0;exitDx=0;exitDy=0;entryPerimeter=0;" edge="1" parent="1" source="f5FZlxdkZfZPKPNyx8Ql-24" target="f5FZlxdkZfZPKPNyx8Ql-1">
          <mxGeometry width="50" height="50" relative="1" as="geometry">
            <mxPoint x="124" y="273" as="sourcePoint" />
            <mxPoint x="167" y="205" as="targetPoint" />
          </mxGeometry>
        </mxCell>
        <mxCell id="f5FZlxdkZfZPKPNyx8Ql-26" value="Customer" style="rounded=0;whiteSpace=wrap;html=1;" vertex="1" parent="1">
          <mxGeometry x="700" y="170" width="120" height="40" as="geometry" />
        </mxCell>
        <mxCell id="f5FZlxdkZfZPKPNyx8Ql-27" value="Customer_Id" style="ellipse;whiteSpace=wrap;html=1;" vertex="1" parent="1">
          <mxGeometry x="630" y="70" width="110" height="30" as="geometry" />
        </mxCell>
        <mxCell id="f5FZlxdkZfZPKPNyx8Ql-28" value="full_name" style="ellipse;whiteSpace=wrap;html=1;" vertex="1" parent="1">
          <mxGeometry x="750" y="50" width="110" height="30" as="geometry" />
        </mxCell>
        <mxCell id="f5FZlxdkZfZPKPNyx8Ql-29" value="username" style="ellipse;whiteSpace=wrap;html=1;" vertex="1" parent="1">
          <mxGeometry x="880" y="80" width="110" height="30" as="geometry" />
        </mxCell>
        <mxCell id="f5FZlxdkZfZPKPNyx8Ql-30" value="password" style="ellipse;whiteSpace=wrap;html=1;" vertex="1" parent="1">
          <mxGeometry x="910" y="140" width="110" height="30" as="geometry" />
        </mxCell>
        <mxCell id="f5FZlxdkZfZPKPNyx8Ql-31" value="phone_number" style="ellipse;whiteSpace=wrap;html=1;" vertex="1" parent="1">
          <mxGeometry x="740" y="280" width="110" height="30" as="geometry" />
        </mxCell>
        <mxCell id="f5FZlxdkZfZPKPNyx8Ql-32" value="address" style="ellipse;whiteSpace=wrap;html=1;" vertex="1" parent="1">
          <mxGeometry x="610" y="280" width="110" height="30" as="geometry" />
        </mxCell>
        <mxCell id="f5FZlxdkZfZPKPNyx8Ql-33" value="gender" style="ellipse;whiteSpace=wrap;html=1;" vertex="1" parent="1">
          <mxGeometry x="900" y="185" width="110" height="30" as="geometry" />
        </mxCell>
        <mxCell id="f5FZlxdkZfZPKPNyx8Ql-35" value="" style="endArrow=none;html=1;rounded=0;entryX=0.62;entryY=1.14;entryDx=0;entryDy=0;entryPerimeter=0;exitX=0.25;exitY=0;exitDx=0;exitDy=0;" edge="1" parent="1" source="f5FZlxdkZfZPKPNyx8Ql-26" target="f5FZlxdkZfZPKPNyx8Ql-27">
          <mxGeometry width="50" height="50" relative="1" as="geometry">
            <mxPoint x="730" y="180" as="sourcePoint" />
            <mxPoint x="780" y="130" as="targetPoint" />
          </mxGeometry>
        </mxCell>
        <mxCell id="f5FZlxdkZfZPKPNyx8Ql-36" value="" style="endArrow=none;html=1;rounded=0;entryX=0.364;entryY=1;entryDx=0;entryDy=0;entryPerimeter=0;exitX=0.585;exitY=-0.03;exitDx=0;exitDy=0;exitPerimeter=0;" edge="1" parent="1" source="f5FZlxdkZfZPKPNyx8Ql-26" target="f5FZlxdkZfZPKPNyx8Ql-28">
          <mxGeometry width="50" height="50" relative="1" as="geometry">
            <mxPoint x="782" y="180" as="sourcePoint" />
            <mxPoint x="750" y="104" as="targetPoint" />
          </mxGeometry>
        </mxCell>
        <mxCell id="f5FZlxdkZfZPKPNyx8Ql-38" value="" style="endArrow=none;html=1;rounded=0;entryX=0;entryY=0.5;entryDx=0;entryDy=0;exitX=1;exitY=0.375;exitDx=0;exitDy=0;exitPerimeter=0;" edge="1" parent="1" source="f5FZlxdkZfZPKPNyx8Ql-26" target="f5FZlxdkZfZPKPNyx8Ql-29">
          <mxGeometry width="50" height="50" relative="1" as="geometry">
            <mxPoint x="830" y="190" as="sourcePoint" />
            <mxPoint x="888" y="120" as="targetPoint" />
          </mxGeometry>
        </mxCell>
        <mxCell id="f5FZlxdkZfZPKPNyx8Ql-39" value="" style="endArrow=none;html=1;rounded=0;entryX=0.332;entryY=0.99;entryDx=0;entryDy=0;entryPerimeter=0;exitX=0.442;exitY=-0.127;exitDx=0;exitDy=0;exitPerimeter=0;" edge="1" parent="1" source="f5FZlxdkZfZPKPNyx8Ql-32" target="f5FZlxdkZfZPKPNyx8Ql-26">
          <mxGeometry width="50" height="50" relative="1" as="geometry">
            <mxPoint x="690" y="280" as="sourcePoint" />
            <mxPoint x="730" y="220" as="targetPoint" />
          </mxGeometry>
        </mxCell>
        <mxCell id="f5FZlxdkZfZPKPNyx8Ql-40" value="" style="endArrow=none;html=1;rounded=0;entryX=0.645;entryY=0.99;entryDx=0;entryDy=0;exitX=0.311;exitY=0.113;exitDx=0;exitDy=0;exitPerimeter=0;entryPerimeter=0;" edge="1" parent="1" source="f5FZlxdkZfZPKPNyx8Ql-31" target="f5FZlxdkZfZPKPNyx8Ql-26">
          <mxGeometry width="50" height="50" relative="1" as="geometry">
            <mxPoint x="775" y="285" as="sourcePoint" />
            <mxPoint x="855" y="230" as="targetPoint" />
          </mxGeometry>
        </mxCell>
        <mxCell id="f5FZlxdkZfZPKPNyx8Ql-41" value="" style="endArrow=none;html=1;rounded=0;entryX=0.645;entryY=0.99;entryDx=0;entryDy=0;exitX=0;exitY=0.5;exitDx=0;exitDy=0;entryPerimeter=0;" edge="1" parent="1" source="f5FZlxdkZfZPKPNyx8Ql-33">
          <mxGeometry width="50" height="50" relative="1" as="geometry">
            <mxPoint x="837" y="283" as="sourcePoint" />
            <mxPoint x="820" y="215" as="targetPoint" />
          </mxGeometry>
        </mxCell>
        <mxCell id="f5FZlxdkZfZPKPNyx8Ql-42" value="" style="endArrow=none;html=1;rounded=0;exitX=1;exitY=0.375;exitDx=0;exitDy=0;exitPerimeter=0;entryX=0;entryY=0.5;entryDx=0;entryDy=0;" edge="1" parent="1" target="f5FZlxdkZfZPKPNyx8Ql-30">
          <mxGeometry width="50" height="50" relative="1" as="geometry">
            <mxPoint x="820" y="195" as="sourcePoint" />
            <mxPoint x="915" y="210" as="targetPoint" />
          </mxGeometry>
        </mxCell>
        <mxCell id="f5FZlxdkZfZPKPNyx8Ql-43" value="email" style="ellipse;whiteSpace=wrap;html=1;" vertex="1" parent="1">
          <mxGeometry x="860" y="260" width="110" height="30" as="geometry" />
        </mxCell>
        <mxCell id="f5FZlxdkZfZPKPNyx8Ql-44" value="" style="endArrow=none;html=1;rounded=0;entryX=0.845;entryY=0.996;entryDx=0;entryDy=0;exitX=0;exitY=0;exitDx=0;exitDy=0;entryPerimeter=0;" edge="1" parent="1" source="f5FZlxdkZfZPKPNyx8Ql-43" target="f5FZlxdkZfZPKPNyx8Ql-26">
          <mxGeometry width="50" height="50" relative="1" as="geometry">
            <mxPoint x="744" y="293" as="sourcePoint" />
            <mxPoint x="787" y="225" as="targetPoint" />
          </mxGeometry>
        </mxCell>
        <mxCell id="f5FZlxdkZfZPKPNyx8Ql-45" value="Seller" style="rounded=0;whiteSpace=wrap;html=1;" vertex="1" parent="1">
          <mxGeometry x="700" y="570" width="120" height="40" as="geometry" />
        </mxCell>
        <mxCell id="f5FZlxdkZfZPKPNyx8Ql-46" value="Seller_id" style="ellipse;whiteSpace=wrap;html=1;" vertex="1" parent="1">
          <mxGeometry x="630" y="470" width="110" height="30" as="geometry" />
        </mxCell>
        <mxCell id="f5FZlxdkZfZPKPNyx8Ql-47" value="full_name" style="ellipse;whiteSpace=wrap;html=1;" vertex="1" parent="1">
          <mxGeometry x="750" y="450" width="110" height="30" as="geometry" />
        </mxCell>
        <mxCell id="f5FZlxdkZfZPKPNyx8Ql-48" value="username" style="ellipse;whiteSpace=wrap;html=1;" vertex="1" parent="1">
          <mxGeometry x="880" y="480" width="110" height="30" as="geometry" />
        </mxCell>
        <mxCell id="f5FZlxdkZfZPKPNyx8Ql-49" value="password" style="ellipse;whiteSpace=wrap;html=1;" vertex="1" parent="1">
          <mxGeometry x="910" y="540" width="110" height="30" as="geometry" />
        </mxCell>
        <mxCell id="f5FZlxdkZfZPKPNyx8Ql-50" value="phone_number" style="ellipse;whiteSpace=wrap;html=1;" vertex="1" parent="1">
          <mxGeometry x="720" y="710" width="110" height="30" as="geometry" />
        </mxCell>
        <mxCell id="f5FZlxdkZfZPKPNyx8Ql-51" value="address" style="ellipse;whiteSpace=wrap;html=1;" vertex="1" parent="1">
          <mxGeometry x="610" y="680" width="110" height="30" as="geometry" />
        </mxCell>
        <mxCell id="f5FZlxdkZfZPKPNyx8Ql-52" value="gender" style="ellipse;whiteSpace=wrap;html=1;" vertex="1" parent="1">
          <mxGeometry x="900" y="585" width="110" height="30" as="geometry" />
        </mxCell>
        <mxCell id="f5FZlxdkZfZPKPNyx8Ql-53" value="" style="endArrow=none;html=1;rounded=0;entryX=0.62;entryY=1.14;entryDx=0;entryDy=0;entryPerimeter=0;exitX=0.25;exitY=0;exitDx=0;exitDy=0;" edge="1" parent="1" source="f5FZlxdkZfZPKPNyx8Ql-45" target="f5FZlxdkZfZPKPNyx8Ql-46">
          <mxGeometry width="50" height="50" relative="1" as="geometry">
            <mxPoint x="730" y="580" as="sourcePoint" />
            <mxPoint x="780" y="530" as="targetPoint" />
          </mxGeometry>
        </mxCell>
        <mxCell id="f5FZlxdkZfZPKPNyx8Ql-54" value="" style="endArrow=none;html=1;rounded=0;entryX=0.364;entryY=1;entryDx=0;entryDy=0;entryPerimeter=0;exitX=0.585;exitY=-0.03;exitDx=0;exitDy=0;exitPerimeter=0;" edge="1" parent="1" source="f5FZlxdkZfZPKPNyx8Ql-45" target="f5FZlxdkZfZPKPNyx8Ql-47">
          <mxGeometry width="50" height="50" relative="1" as="geometry">
            <mxPoint x="782" y="580" as="sourcePoint" />
            <mxPoint x="750" y="504" as="targetPoint" />
          </mxGeometry>
        </mxCell>
        <mxCell id="f5FZlxdkZfZPKPNyx8Ql-55" value="" style="endArrow=none;html=1;rounded=0;entryX=0;entryY=0.5;entryDx=0;entryDy=0;exitX=1;exitY=0.375;exitDx=0;exitDy=0;exitPerimeter=0;" edge="1" parent="1" source="f5FZlxdkZfZPKPNyx8Ql-45" target="f5FZlxdkZfZPKPNyx8Ql-48">
          <mxGeometry width="50" height="50" relative="1" as="geometry">
            <mxPoint x="830" y="590" as="sourcePoint" />
            <mxPoint x="888" y="520" as="targetPoint" />
          </mxGeometry>
        </mxCell>
        <mxCell id="f5FZlxdkZfZPKPNyx8Ql-56" value="" style="endArrow=none;html=1;rounded=0;entryX=0.332;entryY=0.99;entryDx=0;entryDy=0;entryPerimeter=0;exitX=0.442;exitY=-0.127;exitDx=0;exitDy=0;exitPerimeter=0;" edge="1" parent="1" source="f5FZlxdkZfZPKPNyx8Ql-51" target="f5FZlxdkZfZPKPNyx8Ql-45">
          <mxGeometry width="50" height="50" relative="1" as="geometry">
            <mxPoint x="690" y="680" as="sourcePoint" />
            <mxPoint x="730" y="620" as="targetPoint" />
          </mxGeometry>
        </mxCell>
        <mxCell id="f5FZlxdkZfZPKPNyx8Ql-57" value="" style="endArrow=none;html=1;rounded=0;entryX=0.645;entryY=0.99;entryDx=0;entryDy=0;exitX=0.311;exitY=0.113;exitDx=0;exitDy=0;exitPerimeter=0;entryPerimeter=0;" edge="1" parent="1" source="f5FZlxdkZfZPKPNyx8Ql-50" target="f5FZlxdkZfZPKPNyx8Ql-45">
          <mxGeometry width="50" height="50" relative="1" as="geometry">
            <mxPoint x="775" y="685" as="sourcePoint" />
            <mxPoint x="855" y="630" as="targetPoint" />
          </mxGeometry>
        </mxCell>
        <mxCell id="f5FZlxdkZfZPKPNyx8Ql-58" value="" style="endArrow=none;html=1;rounded=0;entryX=0.645;entryY=0.99;entryDx=0;entryDy=0;exitX=0;exitY=0.5;exitDx=0;exitDy=0;entryPerimeter=0;" edge="1" parent="1" source="f5FZlxdkZfZPKPNyx8Ql-52">
          <mxGeometry width="50" height="50" relative="1" as="geometry">
            <mxPoint x="837" y="683" as="sourcePoint" />
            <mxPoint x="820" y="615" as="targetPoint" />
          </mxGeometry>
        </mxCell>
        <mxCell id="f5FZlxdkZfZPKPNyx8Ql-59" value="" style="endArrow=none;html=1;rounded=0;exitX=1;exitY=0.375;exitDx=0;exitDy=0;exitPerimeter=0;entryX=0;entryY=0.5;entryDx=0;entryDy=0;" edge="1" parent="1" target="f5FZlxdkZfZPKPNyx8Ql-49">
          <mxGeometry width="50" height="50" relative="1" as="geometry">
            <mxPoint x="820" y="595" as="sourcePoint" />
            <mxPoint x="915" y="610" as="targetPoint" />
          </mxGeometry>
        </mxCell>
        <mxCell id="f5FZlxdkZfZPKPNyx8Ql-60" value="email" style="ellipse;whiteSpace=wrap;html=1;" vertex="1" parent="1">
          <mxGeometry x="870" y="660" width="110" height="30" as="geometry" />
        </mxCell>
        <mxCell id="f5FZlxdkZfZPKPNyx8Ql-61" value="" style="endArrow=none;html=1;rounded=0;entryX=0.845;entryY=0.996;entryDx=0;entryDy=0;exitX=0;exitY=0;exitDx=0;exitDy=0;entryPerimeter=0;" edge="1" parent="1" source="f5FZlxdkZfZPKPNyx8Ql-60" target="f5FZlxdkZfZPKPNyx8Ql-45">
          <mxGeometry width="50" height="50" relative="1" as="geometry">
            <mxPoint x="744" y="693" as="sourcePoint" />
            <mxPoint x="787" y="625" as="targetPoint" />
          </mxGeometry>
        </mxCell>
        <mxCell id="f5FZlxdkZfZPKPNyx8Ql-63" value="Revenue" style="ellipse;whiteSpace=wrap;html=1;" vertex="1" parent="1">
          <mxGeometry x="840" y="715" width="110" height="30" as="geometry" />
        </mxCell>
        <mxCell id="f5FZlxdkZfZPKPNyx8Ql-64" value="" style="endArrow=none;html=1;rounded=0;entryX=0.825;entryY=1.085;entryDx=0;entryDy=0;exitX=0.311;exitY=0.113;exitDx=0;exitDy=0;exitPerimeter=0;entryPerimeter=0;" edge="1" parent="1" source="f5FZlxdkZfZPKPNyx8Ql-63" target="f5FZlxdkZfZPKPNyx8Ql-45">
          <mxGeometry width="50" height="50" relative="1" as="geometry">
            <mxPoint x="895" y="690" as="sourcePoint" />
            <mxPoint x="897" y="615" as="targetPoint" />
          </mxGeometry>
        </mxCell>
        <mxCell id="f5FZlxdkZfZPKPNyx8Ql-85" value="Orders" style="rounded=0;whiteSpace=wrap;html=1;" vertex="1" parent="1">
          <mxGeometry x="40" y="555" width="120" height="40" as="geometry" />
        </mxCell>
        <mxCell id="f5FZlxdkZfZPKPNyx8Ql-86" value="order_ID&amp;nbsp;" style="ellipse;whiteSpace=wrap;html=1;" vertex="1" parent="1">
          <mxGeometry x="-110" y="495" width="110" height="30" as="geometry" />
        </mxCell>
        <mxCell id="f5FZlxdkZfZPKPNyx8Ql-87" value="Customer_username" style="ellipse;whiteSpace=wrap;html=1;" vertex="1" parent="1">
          <mxGeometry x="-45" y="450" width="120" height="30" as="geometry" />
        </mxCell>
        <mxCell id="f5FZlxdkZfZPKPNyx8Ql-88" value="Customer_address" style="ellipse;whiteSpace=wrap;html=1;" vertex="1" parent="1">
          <mxGeometry x="150" y="450" width="110" height="30" as="geometry" />
        </mxCell>
        <mxCell id="f5FZlxdkZfZPKPNyx8Ql-89" value="Seller_username" style="ellipse;whiteSpace=wrap;html=1;" vertex="1" parent="1">
          <mxGeometry x="190" y="500" width="110" height="30" as="geometry" />
        </mxCell>
        <mxCell id="f5FZlxdkZfZPKPNyx8Ql-90" value="Quantity" style="ellipse;whiteSpace=wrap;html=1;" vertex="1" parent="1">
          <mxGeometry x="20" y="700" width="110" height="30" as="geometry" />
        </mxCell>
        <mxCell id="f5FZlxdkZfZPKPNyx8Ql-91" value="Price" style="ellipse;whiteSpace=wrap;html=1;" vertex="1" parent="1">
          <mxGeometry x="-80" y="640" width="110" height="30" as="geometry" />
        </mxCell>
        <mxCell id="f5FZlxdkZfZPKPNyx8Ql-92" value="book_name" style="ellipse;whiteSpace=wrap;html=1;" vertex="1" parent="1">
          <mxGeometry x="230" y="650" width="110" height="30" as="geometry" />
        </mxCell>
        <mxCell id="f5FZlxdkZfZPKPNyx8Ql-93" value="Customer_phone" style="ellipse;whiteSpace=wrap;html=1;" vertex="1" parent="1">
          <mxGeometry x="70" y="410" width="110" height="30" as="geometry" />
        </mxCell>
        <mxCell id="f5FZlxdkZfZPKPNyx8Ql-94" value="" style="endArrow=none;html=1;rounded=0;entryX=0.62;entryY=1.14;entryDx=0;entryDy=0;entryPerimeter=0;exitX=0.25;exitY=0;exitDx=0;exitDy=0;" edge="1" parent="1" source="f5FZlxdkZfZPKPNyx8Ql-85" target="f5FZlxdkZfZPKPNyx8Ql-86">
          <mxGeometry width="50" height="50" relative="1" as="geometry">
            <mxPoint x="70" y="560" as="sourcePoint" />
            <mxPoint x="120" y="510" as="targetPoint" />
          </mxGeometry>
        </mxCell>
        <mxCell id="f5FZlxdkZfZPKPNyx8Ql-95" value="" style="endArrow=none;html=1;rounded=0;entryX=0.364;entryY=1;entryDx=0;entryDy=0;entryPerimeter=0;exitX=0.585;exitY=-0.03;exitDx=0;exitDy=0;exitPerimeter=0;" edge="1" parent="1" source="f5FZlxdkZfZPKPNyx8Ql-85" target="f5FZlxdkZfZPKPNyx8Ql-87">
          <mxGeometry width="50" height="50" relative="1" as="geometry">
            <mxPoint x="122" y="560" as="sourcePoint" />
            <mxPoint x="90" y="484" as="targetPoint" />
          </mxGeometry>
        </mxCell>
        <mxCell id="f5FZlxdkZfZPKPNyx8Ql-96" value="" style="endArrow=none;html=1;rounded=0;entryX=0.053;entryY=0.9;entryDx=0;entryDy=0;entryPerimeter=0;exitX=0.898;exitY=0.01;exitDx=0;exitDy=0;exitPerimeter=0;" edge="1" parent="1" source="f5FZlxdkZfZPKPNyx8Ql-85" target="f5FZlxdkZfZPKPNyx8Ql-93">
          <mxGeometry width="50" height="50" relative="1" as="geometry">
            <mxPoint x="160" y="560" as="sourcePoint" />
            <mxPoint x="180" y="466" as="targetPoint" />
          </mxGeometry>
        </mxCell>
        <mxCell id="f5FZlxdkZfZPKPNyx8Ql-97" value="" style="endArrow=none;html=1;rounded=0;entryX=0;entryY=0.5;entryDx=0;entryDy=0;exitX=1;exitY=0;exitDx=0;exitDy=0;" edge="1" parent="1" source="f5FZlxdkZfZPKPNyx8Ql-85" target="f5FZlxdkZfZPKPNyx8Ql-88">
          <mxGeometry width="50" height="50" relative="1" as="geometry">
            <mxPoint x="170" y="570" as="sourcePoint" />
            <mxPoint x="228" y="500" as="targetPoint" />
            <Array as="points" />
          </mxGeometry>
        </mxCell>
        <mxCell id="f5FZlxdkZfZPKPNyx8Ql-98" value="" style="endArrow=none;html=1;rounded=0;entryX=0.332;entryY=0.99;entryDx=0;entryDy=0;entryPerimeter=0;exitX=0.442;exitY=-0.127;exitDx=0;exitDy=0;exitPerimeter=0;" edge="1" parent="1" source="f5FZlxdkZfZPKPNyx8Ql-91" target="f5FZlxdkZfZPKPNyx8Ql-85">
          <mxGeometry width="50" height="50" relative="1" as="geometry">
            <mxPoint x="30" y="660" as="sourcePoint" />
            <mxPoint x="70" y="600" as="targetPoint" />
          </mxGeometry>
        </mxCell>
        <mxCell id="f5FZlxdkZfZPKPNyx8Ql-99" value="" style="endArrow=none;html=1;rounded=0;entryX=0.645;entryY=0.99;entryDx=0;entryDy=0;exitX=0.311;exitY=0.113;exitDx=0;exitDy=0;exitPerimeter=0;entryPerimeter=0;" edge="1" parent="1" source="f5FZlxdkZfZPKPNyx8Ql-90" target="f5FZlxdkZfZPKPNyx8Ql-85">
          <mxGeometry width="50" height="50" relative="1" as="geometry">
            <mxPoint x="115" y="665" as="sourcePoint" />
            <mxPoint x="195" y="610" as="targetPoint" />
          </mxGeometry>
        </mxCell>
        <mxCell id="f5FZlxdkZfZPKPNyx8Ql-100" value="" style="endArrow=none;html=1;rounded=0;entryX=0.645;entryY=0.99;entryDx=0;entryDy=0;exitX=0;exitY=0.5;exitDx=0;exitDy=0;entryPerimeter=0;" edge="1" parent="1" source="f5FZlxdkZfZPKPNyx8Ql-92">
          <mxGeometry width="50" height="50" relative="1" as="geometry">
            <mxPoint x="177" y="663" as="sourcePoint" />
            <mxPoint x="160" y="595" as="targetPoint" />
          </mxGeometry>
        </mxCell>
        <mxCell id="f5FZlxdkZfZPKPNyx8Ql-101" value="" style="endArrow=none;html=1;rounded=0;exitX=1;exitY=0.25;exitDx=0;exitDy=0;entryX=0;entryY=0.5;entryDx=0;entryDy=0;" edge="1" parent="1" target="f5FZlxdkZfZPKPNyx8Ql-89" source="f5FZlxdkZfZPKPNyx8Ql-85">
          <mxGeometry width="50" height="50" relative="1" as="geometry">
            <mxPoint x="160" y="575" as="sourcePoint" />
            <mxPoint x="255" y="590" as="targetPoint" />
          </mxGeometry>
        </mxCell>
        <mxCell id="f5FZlxdkZfZPKPNyx8Ql-102" value="Author_name" style="ellipse;whiteSpace=wrap;html=1;" vertex="1" parent="1">
          <mxGeometry x="160" y="685" width="110" height="30" as="geometry" />
        </mxCell>
        <mxCell id="f5FZlxdkZfZPKPNyx8Ql-103" value="" style="endArrow=none;html=1;rounded=0;entryX=0.845;entryY=0.996;entryDx=0;entryDy=0;exitX=0;exitY=0;exitDx=0;exitDy=0;entryPerimeter=0;" edge="1" parent="1" source="f5FZlxdkZfZPKPNyx8Ql-102" target="f5FZlxdkZfZPKPNyx8Ql-85">
          <mxGeometry width="50" height="50" relative="1" as="geometry">
            <mxPoint x="84" y="673" as="sourcePoint" />
            <mxPoint x="127" y="605" as="targetPoint" />
          </mxGeometry>
        </mxCell>
        <mxCell id="f5FZlxdkZfZPKPNyx8Ql-105" value="Places" style="rhombus;whiteSpace=wrap;html=1;" vertex="1" parent="1">
          <mxGeometry x="370" y="485" width="80" height="70" as="geometry" />
        </mxCell>
        <mxCell id="f5FZlxdkZfZPKPNyx8Ql-106" value="" style="endArrow=none;html=1;rounded=0;entryX=0;entryY=0.5;entryDx=0;entryDy=0;exitX=0.5;exitY=0;exitDx=0;exitDy=0;" edge="1" parent="1" source="f5FZlxdkZfZPKPNyx8Ql-105" target="f5FZlxdkZfZPKPNyx8Ql-26">
          <mxGeometry width="50" height="50" relative="1" as="geometry">
            <mxPoint x="500" y="480" as="sourcePoint" />
            <mxPoint x="500" y="150" as="targetPoint" />
            <Array as="points">
              <mxPoint x="410" y="190" />
            </Array>
          </mxGeometry>
        </mxCell>
        <mxCell id="f5FZlxdkZfZPKPNyx8Ql-107" value="" style="endArrow=none;html=1;rounded=0;entryX=0;entryY=0.5;entryDx=0;entryDy=0;exitX=1;exitY=0.5;exitDx=0;exitDy=0;" edge="1" parent="1" source="f5FZlxdkZfZPKPNyx8Ql-85" target="f5FZlxdkZfZPKPNyx8Ql-105">
          <mxGeometry width="50" height="50" relative="1" as="geometry">
            <mxPoint x="160" y="515" as="sourcePoint" />
            <mxPoint x="270" y="500" as="targetPoint" />
          </mxGeometry>
        </mxCell>
        <mxCell id="f5FZlxdkZfZPKPNyx8Ql-108" value="" style="endArrow=none;html=1;rounded=0;exitX=1;exitY=0.5;exitDx=0;exitDy=0;" edge="1" parent="1" source="f5FZlxdkZfZPKPNyx8Ql-112">
          <mxGeometry width="50" height="50" relative="1" as="geometry">
            <mxPoint x="500" y="590" as="sourcePoint" />
            <mxPoint x="700" y="589" as="targetPoint" />
          </mxGeometry>
        </mxCell>
        <mxCell id="f5FZlxdkZfZPKPNyx8Ql-109" value="1" style="text;html=1;align=center;verticalAlign=middle;resizable=0;points=[];autosize=1;strokeColor=none;fillColor=none;" vertex="1" parent="1">
          <mxGeometry x="410" y="195" width="30" height="30" as="geometry" />
        </mxCell>
        <mxCell id="f5FZlxdkZfZPKPNyx8Ql-110" value="N" style="text;html=1;align=center;verticalAlign=middle;resizable=0;points=[];autosize=1;strokeColor=none;fillColor=none;" vertex="1" parent="1">
          <mxGeometry x="410" y="455" width="30" height="30" as="geometry" />
        </mxCell>
        <mxCell id="f5FZlxdkZfZPKPNyx8Ql-112" value="Fulfills" style="rhombus;whiteSpace=wrap;html=1;" vertex="1" parent="1">
          <mxGeometry x="425" y="555" width="80" height="70" as="geometry" />
        </mxCell>
        <mxCell id="f5FZlxdkZfZPKPNyx8Ql-113" value="" style="endArrow=none;html=1;rounded=0;exitX=1;exitY=0.5;exitDx=0;exitDy=0;entryX=0;entryY=0.5;entryDx=0;entryDy=0;" edge="1" parent="1" target="f5FZlxdkZfZPKPNyx8Ql-112">
          <mxGeometry width="50" height="50" relative="1" as="geometry">
            <mxPoint x="160" y="586" as="sourcePoint" />
            <mxPoint x="355" y="585" as="targetPoint" />
          </mxGeometry>
        </mxCell>
        <mxCell id="f5FZlxdkZfZPKPNyx8Ql-114" value="1" style="text;html=1;align=center;verticalAlign=middle;resizable=0;points=[];autosize=1;strokeColor=none;fillColor=none;" vertex="1" parent="1">
          <mxGeometry x="655" y="588" width="30" height="30" as="geometry" />
        </mxCell>
        <mxCell id="f5FZlxdkZfZPKPNyx8Ql-115" value="N" style="text;html=1;align=center;verticalAlign=middle;resizable=0;points=[];autosize=1;strokeColor=none;fillColor=none;" vertex="1" parent="1">
          <mxGeometry x="355" y="588" width="30" height="30" as="geometry" />
        </mxCell>
        <mxCell id="f5FZlxdkZfZPKPNyx8Ql-116" value="N" style="text;html=1;align=center;verticalAlign=middle;resizable=0;points=[];autosize=1;strokeColor=none;fillColor=none;" vertex="1" parent="1">
          <mxGeometry x="385" y="195" width="30" height="30" as="geometry" />
        </mxCell>
        <mxCell id="f5FZlxdkZfZPKPNyx8Ql-117" value="1" style="text;html=1;align=center;verticalAlign=middle;resizable=0;points=[];autosize=1;strokeColor=none;fillColor=none;" vertex="1" parent="1">
          <mxGeometry x="380" y="455" width="30" height="30" as="geometry" />
        </mxCell>
        <mxCell id="f5FZlxdkZfZPKPNyx8Ql-118" value="Authors" style="rounded=0;whiteSpace=wrap;html=1;" vertex="1" parent="1">
          <mxGeometry x="390" y="935" width="120" height="40" as="geometry" />
        </mxCell>
        <mxCell id="f5FZlxdkZfZPKPNyx8Ql-119" value="ID&amp;nbsp;" style="ellipse;whiteSpace=wrap;html=1;" vertex="1" parent="1">
          <mxGeometry x="305" y="840" width="110" height="30" as="geometry" />
        </mxCell>
        <mxCell id="f5FZlxdkZfZPKPNyx8Ql-120" value="full_name" style="ellipse;whiteSpace=wrap;html=1;" vertex="1" parent="1">
          <mxGeometry x="425" y="820" width="110" height="30" as="geometry" />
        </mxCell>
        <mxCell id="f5FZlxdkZfZPKPNyx8Ql-121" value="prices" style="ellipse;whiteSpace=wrap;html=1;" vertex="1" parent="1">
          <mxGeometry x="575" y="890" width="110" height="30" as="geometry" />
        </mxCell>
        <mxCell id="f5FZlxdkZfZPKPNyx8Ql-122" value="stocks" style="ellipse;whiteSpace=wrap;html=1;" vertex="1" parent="1">
          <mxGeometry x="575" y="945" width="110" height="30" as="geometry" />
        </mxCell>
        <mxCell id="f5FZlxdkZfZPKPNyx8Ql-126" value="Books" style="ellipse;whiteSpace=wrap;html=1;" vertex="1" parent="1">
          <mxGeometry x="545" y="840" width="110" height="30" as="geometry" />
        </mxCell>
        <mxCell id="f5FZlxdkZfZPKPNyx8Ql-127" value="" style="endArrow=none;html=1;rounded=0;entryX=0.62;entryY=1.14;entryDx=0;entryDy=0;entryPerimeter=0;exitX=0.25;exitY=0;exitDx=0;exitDy=0;" edge="1" parent="1" source="f5FZlxdkZfZPKPNyx8Ql-118" target="f5FZlxdkZfZPKPNyx8Ql-119">
          <mxGeometry width="50" height="50" relative="1" as="geometry">
            <mxPoint x="405" y="950" as="sourcePoint" />
            <mxPoint x="455" y="900" as="targetPoint" />
          </mxGeometry>
        </mxCell>
        <mxCell id="f5FZlxdkZfZPKPNyx8Ql-128" value="" style="endArrow=none;html=1;rounded=0;entryX=0.364;entryY=1;entryDx=0;entryDy=0;entryPerimeter=0;" edge="1" parent="1" target="f5FZlxdkZfZPKPNyx8Ql-120">
          <mxGeometry width="50" height="50" relative="1" as="geometry">
            <mxPoint x="465" y="950" as="sourcePoint" />
            <mxPoint x="425" y="874" as="targetPoint" />
          </mxGeometry>
        </mxCell>
        <mxCell id="f5FZlxdkZfZPKPNyx8Ql-129" value="" style="endArrow=none;html=1;rounded=0;entryX=0.053;entryY=0.9;entryDx=0;entryDy=0;entryPerimeter=0;exitX=0.898;exitY=0.01;exitDx=0;exitDy=0;exitPerimeter=0;" edge="1" parent="1" source="f5FZlxdkZfZPKPNyx8Ql-118" target="f5FZlxdkZfZPKPNyx8Ql-126">
          <mxGeometry width="50" height="50" relative="1" as="geometry">
            <mxPoint x="495" y="950" as="sourcePoint" />
            <mxPoint x="515" y="856" as="targetPoint" />
          </mxGeometry>
        </mxCell>
        <mxCell id="f5FZlxdkZfZPKPNyx8Ql-130" value="" style="endArrow=none;html=1;rounded=0;entryX=0;entryY=0.5;entryDx=0;entryDy=0;exitX=1;exitY=0.375;exitDx=0;exitDy=0;exitPerimeter=0;" edge="1" parent="1" source="f5FZlxdkZfZPKPNyx8Ql-118" target="f5FZlxdkZfZPKPNyx8Ql-121">
          <mxGeometry width="50" height="50" relative="1" as="geometry">
            <mxPoint x="505" y="960" as="sourcePoint" />
            <mxPoint x="563" y="890" as="targetPoint" />
          </mxGeometry>
        </mxCell>
        <mxCell id="f5FZlxdkZfZPKPNyx8Ql-134" value="" style="endArrow=none;html=1;rounded=0;exitX=1;exitY=0.375;exitDx=0;exitDy=0;exitPerimeter=0;entryX=0;entryY=0.5;entryDx=0;entryDy=0;" edge="1" parent="1" target="f5FZlxdkZfZPKPNyx8Ql-122">
          <mxGeometry width="50" height="50" relative="1" as="geometry">
            <mxPoint x="495" y="965" as="sourcePoint" />
            <mxPoint x="590" y="980" as="targetPoint" />
          </mxGeometry>
        </mxCell>
        <mxCell id="f5FZlxdkZfZPKPNyx8Ql-135" value="images" style="ellipse;whiteSpace=wrap;html=1;" vertex="1" parent="1">
          <mxGeometry x="535" y="1000" width="110" height="30" as="geometry" />
        </mxCell>
        <mxCell id="f5FZlxdkZfZPKPNyx8Ql-136" value="" style="endArrow=none;html=1;rounded=0;entryX=0.845;entryY=0.996;entryDx=0;entryDy=0;exitX=0;exitY=0;exitDx=0;exitDy=0;entryPerimeter=0;" edge="1" parent="1" source="f5FZlxdkZfZPKPNyx8Ql-135" target="f5FZlxdkZfZPKPNyx8Ql-118">
          <mxGeometry width="50" height="50" relative="1" as="geometry">
            <mxPoint x="419" y="1063" as="sourcePoint" />
            <mxPoint x="462" y="995" as="targetPoint" />
          </mxGeometry>
        </mxCell>
      </root>
    </mxGraphModel>
  </diagram>
</mxfile>
